<?xml version="1.0" encoding="UTF-8"?>
<svg id="Layer_1" data-name="Layer 1" xmlns="http://www.w3.org/2000/svg" viewBox="0 0 227.33 269.62">
  <path d="m85.32,190.61c-2.6,4.3-8,6.6-21.8,9-16.5,3-18.3,3.6-33.6,11-12.03,5.85-21.66,11.61-29.92,17.96,5.69,1.12,9.71,1.9,11.36,2.23h0c2,.16,3.31.61,5.08,1.77,6.36,3.15,12.94,9.6,18.09,15.51,9.29,8.31,16.33,13.53,21.09,15.64,1.95.85,2.95,1.32,3.19,1.65l5.82,4.26,98.13-7.63c5.53-.09,9.76-4.88,9.76-4.88-.2-.2,2.3-3.3,5.7-6.8,3.3-3.6,9-10.7,12.6-15.8,9.6-13.7,9.3-13.4,19.6-18.6,5.08-2.64,7.93-4.01,10.21-3.99,0,0,0,0,0,0,2.1-.5,4.46-.74,6.7-.83-3.36-2.65-7.12-4.83-12.01-7.18-17.2-8.4-35.9-12.3-67.5-14.4l-18.6-1.2-1.5-3c-1.3-2.5-1.5-5.7-1-18.4.3-8.5.8-15.6,1.1-15.9.2-.3,5.4-2.2,11.5-4.3,13.9-4.7,20.5-8.6,30.3-17.9,16.1-15.2,23.8-33.6,23.8-56.8-.1-19.3-5.6-34.2-17.5-47.1C160.72,8.51,145.22,1.61,120.92.21c-8.8-.5-11-.2-18.3,2-18.1,5.5-24.4,8.4-29.8,14-8.3,8.4-16.7,24.5-21,40.1-2.2,8-3.1,33.4-1.4,41.6,2.3,12,5,15.9,23.6,34.3,19.8,19.5,20.1,20.2,18.4,32.6-1.4,9.9-4.7,21.9-7.1,25.8Zm112.1,10.3c8.9,2.6,19,7,18.4,8-.4.6-4.4,2.8-8.9,4.9-7.6,3.6-8.5,4.4-14.1,12-15.6,21.3-17.9,24.3-21.6,26.9-2.1,1.6-6.2,3.4-9.1,4-12.2,2.6-77.2,7.5-89.7,6.7-15.4-1-20.9-4-39.2-21-12.1-11.4-14.8-13.3-20.2-14.8l-3.9-1,3.6-2.5c2-1.3,7.7-4.5,12.7-7l9-4.6,22.1-1,22.1-.9,2.5,2.3c1.3,1.2,2.9,3.3,3.6,4.7.7,1.3,2.4,3.3,3.9,4.4,2.6,1.9,3.3,2,22.3.8,10.8-.7,20.6-1.6,21.9-2.1s3.7-3.1,5.4-5.8l3-5,7.4-.7c8.1-.7,13.2-1.9,29.3-6.9,10.8-3.4,12.3-3.5,19.5-1.4Zm-64.5-8.3c16.7.3,47.5,3.6,47.5,5.1,0,.6-8.3,3.3-18.7,6-2.2.5-7.6,1.5-11.9,2-10.6,1.4-10.9,1.5-14.1,6.5-1.5,2.5-3.9,4.9-5.3,5.4-1.4.5-7.9,1.2-14.5,1.6-6.6.3-15,.8-18.6,1.2l-6.7.6-2.7-4.9c-1.6-2.7-3.5-5.5-4.3-6.2-1.2-.8-6.8-1.2-20.1-1.2-11.4,0-18.1-.4-17.5-.9.5-.5,6.1-1.9,12.4-3.1,17.7-3.2,24.5-5.5,28.3-9.5,1.7-1.9,3.5-3.5,3.8-3.5s1.6,1.1,2.9,2.5c5.1,5.4,15.9,5.8,26.5,1,4.9-2.3,7.3-2.7,13-2.6Zm32.5-140.2c.7-7.3,1.3-17.7,1.3-23.2v-9.9l3.9,4.4c2.1,2.5,5.5,7,7.5,10,7.7,11.4,11.3,23.9,11.3,39.1,0,12.6-2.3,23-7.5,33.4-3.8,7.7-13.5,19.6-20.5,25.1l-4.5,3.6-.3-4.4c-.2-2.3-.1-6.1.3-8.4.5-3.7,1-4.3,5.7-6.5,6.6-3.1,13.4-9.7,16.1-15.7,2.2-4.9,2.8-13.4,1.4-18.5-1.1-4-8.3-11.5-11.8-12.2-1.7-.4-3.3-1.3-3.6-2.1-.3-.8,0-7.4.7-14.7Zm-.5,20.3c1.1,0,3.4.9,5.1,1.9,9.9,6,8,25.5-3.3,33.5-6,4.2-9.7,5.4-16.8,5.5-6.5.1-11.4-2.1-13.5-5.9-1.1-2.1-.9-2,3.4.5,4.1,2.4,5.5,2.7,11.9,2.3,9.2-.4,16-3.7,20.1-9.5,5.5-8,3.2-19.7-5-25.6-3-2.1-3.4-2.7-1.9-2.7Zm-29.3,24c-2.5-6.7,9.1-22.9,16.3-23,1.1,0,4.3,1.1,7.1,2.4,8.1,3.8,12.8,11.8,11,18.9-1.4,5.9-11.3,11.7-19.8,11.7-6.3,0-12.4-4.2-14.6-10Zm-59.8,22.2c-.4,3.8-1,7.1-1.4,7.3-2.5,1.6-14.7-13.5-17.9-22-9.2-24.7.1-65.5,19.5-85.3,7.2-7.3,9-8.3,10-5.8.5,1.2-1.4,25.9-3.2,41.3l-.6,5.2-7,2.1c-6.2,1.9-7.2,2.5-9.8,6.6-2.9,4.6-5,11.9-5,17.3,0,6.9,3,13.1,9.6,19.8l6.5,6.6-.7,6.9Zm16.9-49.2c5.7,5,8.3,9.2,9.7,15.4,1.5,6.8.7,8.4-5.7,11.2-7.5,3.4-16.4,4.2-19.8,2-5.9-3.9-8.2-15.1-4.4-21.2,2.9-4.7,10.8-11.4,13.4-11.4,1.2,0,4.3,1.8,6.8,4Zm-27.8,12.6c1-5.7,4.2-12.8,6.8-14.8,3.5-2.8,4.2-2.1,1.3,1.4-5.8,7.2-6.1,8-6.1,15.3,0,9,3.1,16,8.1,18.1,4.6,1.9,12.1,1.7,19.3-.5,6.3-1.9,7.4-1.6,4.3,1.2-2.8,2.5-8.8,4.7-13,4.7-11.6,0-22.6-13.5-20.7-25.4Zm15.8,48.9c-1.3-2.8-1.5-4.7-.7-11.1l.9-7.8,4.2-.2c6.7-.3,9.9-1.4,14.3-4.5,7.5-5.4,10.1-16.5,6.4-27.3-1.9-5.5-10.8-15.7-15.4-17.6-2.4-1-3-1.8-3-4.4,0-4.1,3-43.5,3.5-46.2.4-2,3-3.1,16.5-7.1,6.9-2,22.6-1,33.5,2.2,4.9,1.4,10.6,3.5,12.6,4.7,4.8,2.7,7.8,8.1,8.5,15.6.7,6.5-1.3,34.2-2.7,37.9-.6,1.5-2,2.4-4.6,2.9-9.6,1.7-18.6,9.5-22.4,19.4-3.5,9.2-1.8,21.3,3.8,26.2,2.5,2.3,9.7,4.8,13.6,4.8h3l-.7,9.2c-.5,6.3-1.2,9.7-2.2,10.4-.8.6-5.1,2.4-9.7,3.9-7.2,2.5-10.1,2.9-23.8,3.3-15.1.4-15.7.4-20.5-2.1-7.7-4-13.3-8.5-15.1-12.2Zm35.5,25c-16.5-1.3-17.7-1.6-19.3-3.8-2.3-3.3-1.8-4,2.3-3.3,2,.3,8.3.6,14,.6h10.2v7.1l-7.2-.6Zm6.5,4.6l-.7,5.7c-.4,3.1-.8,5.7-.9,5.8-.1.1-5.5-.2-12-.8-8.3-.8-12-1.5-12.4-2.5-.3-.7-.2-3.4.2-5.8l.6-4.6,9.2.6c5.1.3,10.7.8,12.6,1.1l3.4.5Zm-27.8,15c.5-1.1,2.4-1.3,10.3-.8,5.3.4,11.3.9,13.3,1.3,3.4.6,3.6.8,4.6,6.2,1.3,6.7,1,7.1-7.4,10.2-9.3,3.5-16.8,2.4-22-3.2-2.2-2.3-2.2-2.5-.8-7.3.9-2.8,1.8-5.6,2-6.4Z"/>
  <path d="m120.42,77.71c1.5,0,2.4-3,1.3-4.1-.5-.5-1.2-.6-1.6-.3-1.1,1.1-.8,4.4.3,4.4Z"/>
  <path d="m118.52,102.71c1.4,0,1.9-.5,1.7-1.7-.3-1.8-2-2.7-3.1-1.7-1.4,1.5-.6,3.4,1.4,3.4Z"/>
  <path d="m87.62,94.71c12.3,0,14.7-14.9,3.3-21.5-4.8-2.9-4.1-2.8-8-1.1-13.3,5.8-9.8,22.6,4.7,22.6Zm-6.3-16.1c3.8-3.7,5.5-3.7,9.7.5,1.9,1.9,3.4,4.3,3.4,5.3,0,6.2-9.1,8.2-13.6,3-3.1-3.6-3-5.2.5-8.8Z"/>
  <path d="m148.72,100.71c1.9,0,5.2-1.2,7.9-2.9,11.8-7.5,9.7-20.1-3.4-20.1-4.3,0-5.4.4-8.3,3.3-7.4,7.4-5,19.7,3.8,19.7Zm9.5-17.4c3,2.1,2.8,4.7-.6,8.1-6,6-10.2,6.6-12.3,1.9-3.2-6.9,6.5-14.5,12.9-10Z"/>
</svg>